<svg xmlns="http://www.w3.org/2000/svg" viewBox="0 0 100 100" role="img" aria-label="nyuko-neko walk b">
  <path fill="#1a1a1a" d="M58 22C50 18 40 20 34 26C30 22 24 24 22 30C16 28 12 34 14 40C10 44 10 50 14 54C12 58 10 64 10 72C8 80 10 86 16 88C22 90 28 86 30 80L34 68C36 62 40 58 44 56C48 54 52 56 54 60C58 64 62 66 66 64C70 62 72 58 70 54C68 50 64 48 60 50C56 52 52 50 50 46C48 42 48 36 52 32C56 26 62 22 58 22ZM22 74C20 70 24 68 28 70C32 72 32 78 28 80C24 82 22 78 22 74ZM56 68C52 66 52 62 56 60C60 58 64 60 64 64C64 68 60 70 56 68Z"/>
</svg>
