<svg xmlns="http://www.w3.org/2000/svg" viewBox="0 0 100 100" role="img" aria-label="nyuko-neko stand">
  <path fill="#1a1a1a" d="M60 14C52 10 42 12 36 18C32 14 26 16 24 22C18 20 14 26 16 32C12 36 12 42 16 46C14 52 12 58 12 66C10 74 12 80 18 82L18 92C14 92 10 88 10 82C8 72 10 60 14 50C12 46 12 40 16 36C14 30 18 24 24 22C26 16 32 12 38 14C44 10 52 8 60 10C68 12 74 20 74 28C74 34 70 38 66 42C70 48 74 56 76 66C78 78 76 88 68 92C62 94 56 90 54 84L52 72C50 64 46 58 42 56C38 54 34 56 32 60L28 72C26 78 20 82 14 80C8 78 6 72 8 66C10 60 14 58 18 60C20 54 24 50 28 48C24 44 24 38 28 34C32 26 40 20 48 18C52 16 56 14 60 14ZM20 78C16 76 16 72 20 70C24 68 28 70 28 74C28 78 24 80 20 78Z"/>
</svg>
