<svg xmlns="http://www.w3.org/2000/svg" viewBox="0 0 100 100" role="img" aria-label="nyuko-neko stretch">
  <path fill="#1a1a1a" d="M18 72C12 72 8 68 10 62C12 56 18 54 24 58L34 64C38 66 42 64 44 60C46 56 50 54 54 56C58 58 60 62 58 66C56 70 52 72 48 70L36 64C32 62 28 64 26 68C24 72 20 74 18 72ZM30 58C26 54 26 48 30 44C34 40 40 40 44 44L52 38C58 34 66 36 70 42C74 48 72 56 66 60L56 66C52 68 48 66 46 62C44 58 40 56 36 58L30 58ZM68 42C72 38 78 38 82 42C86 46 86 52 82 56C78 60 72 60 68 56C64 52 64 46 68 42ZM78 24C84 20 92 22 94 28C96 34 92 40 86 42C80 44 74 40 74 34C74 28 78 24 78 24Z"/>
</svg>
