<svg xmlns="http://www.w3.org/2000/svg" viewBox="0 0 100 100" role="img" aria-label="nyuko-neko pounce">
  <path fill="#1a1a1a" d="M62 30C54 26 44 28 38 34C34 30 28 32 26 38C20 36 16 42 18 48C14 52 14 58 18 62C16 66 14 72 14 78C12 84 16 88 22 86C28 84 32 78 32 72L36 62C38 58 42 56 46 58C50 60 52 64 50 68C48 72 44 74 40 72C36 70 34 66 36 62C38 58 42 56 46 58L54 52C60 48 66 50 70 56C74 62 78 64 82 62C86 60 88 56 86 52C84 48 80 46 76 48L68 52C64 54 60 52 58 48C56 44 58 40 62 38C66 36 70 38 72 42L80 36C86 32 92 34 94 40C96 46 92 52 86 54L76 60C72 62 70 66 72 70C74 74 78 76 82 74C86 72 88 68 86 64C84 60 80 58 76 60L66 66C62 68 58 66 56 62C54 58 56 54 60 52L68 46C72 42 72 36 68 32C64 28 58 28 54 32L62 30Z"/>
</svg>
