<svg xmlns="http://www.w3.org/2000/svg" viewBox="0 0 100 100" role="img" aria-label="nyuko-neko jump">
  <path fill="#1a1a1a" d="M24 58C18 56 14 60 16 66C18 72 24 74 30 70L40 64C44 62 48 64 50 68C52 72 56 74 60 72C64 70 66 66 64 62C62 58 58 56 54 58L44 64C40 66 36 64 34 60C32 56 34 52 38 50C42 48 46 50 48 54L58 48C64 44 72 46 76 52C80 58 78 66 72 70C66 74 58 72 54 66L44 72C38 76 30 74 26 68C22 62 24 58 24 58ZM58 34C52 30 52 24 58 22C64 20 70 24 72 30C74 36 70 42 64 44C58 46 52 42 52 36C52 34 54 32 58 34Z"/>
</svg>
