<svg xmlns="http://www.w3.org/2000/svg" viewBox="0 0 100 100" role="img" aria-label="nyuko-neko groom">
  <path fill="#1a1a1a" d="M58 20C50 16 40 18 34 24C30 20 24 22 22 28C16 26 12 32 14 38C10 42 10 48 14 52C12 58 10 66 10 76C8 88 12 98 22 102C28 106 36 104 40 98C36 94 32 86 32 76C32 64 36 54 42 46C38 40 38 32 42 26C46 20 54 16 62 18C70 20 76 28 76 36C76 42 72 46 68 50C72 56 76 64 78 74C80 86 78 96 70 100C80 98 88 88 90 76C92 64 88 52 80 44C86 36 86 26 78 20C72 16 64 16 58 20ZM48 42C44 46 44 52 48 56L42 62C38 66 38 72 42 76C46 80 52 80 56 76C60 72 60 66 56 62L50 56C54 52 54 46 50 42C50 42 49 42 48 42Z"/>
</svg>
