<svg xmlns="http://www.w3.org/2000/svg" viewBox="0 0 100 100" role="img" aria-label="nyuko-neko sit tail up">
  <path fill="#1a1a1a" d="M50 18C40 18 32 24 30 34C24 32 18 38 20 44C16 48 16 54 20 58C18 64 16 72 16 82C14 92 18 100 28 102C34 104 40 100 42 94C38 90 34 82 34 72C34 60 38 50 44 42C40 36 40 28 44 22C48 16 56 14 64 16C72 18 78 26 78 34C78 40 74 44 70 48C76 56 80 66 82 78C84 90 80 100 72 104C82 102 90 92 92 80C94 68 90 56 82 48C88 40 88 28 80 22C74 18 66 16 58 18C54 18 52 18 50 18ZM72 20C78 16 86 18 88 24C90 30 86 36 80 38C74 40 68 36 68 30C68 24 72 20 72 20Z"/>
</svg>
