<svg xmlns="http://www.w3.org/2000/svg" viewBox="0 0 100 100" role="img" aria-label="nyuko-neko carry hold">
  <path fill="#1a1a1a" d="M50 18C40 18 32 24 30 34C24 32 18 38 20 44C16 48 16 54 20 58C18 66 18 76 22 84C26 90 34 92 40 88C36 84 32 76 32 66C32 56 36 48 42 42C38 36 38 28 42 22C46 16 54 14 62 16C70 18 76 26 76 34C76 40 72 44 68 48C72 54 76 62 78 72C80 82 78 90 72 94C80 92 86 84 88 74C90 64 86 54 80 46C84 38 82 28 74 22C68 18 58 16 50 18Z"/>
  <path fill="#1a1a1a" d="M38 44H62C66 44 68 46 68 50V78C68 82 66 84 62 84H38C34 84 32 82 32 78V50C32 46 34 44 38 44ZM34 40C32 36 34 32 38 30H62C66 30 70 34 68 38L66 42H34L34 40Z"/>
</svg>
