<svg xmlns="http://www.w3.org/2000/svg" viewBox="0 0 100 100" role="img" aria-label="nyuko-neko carry walk">
  <path fill="#1a1a1a" d="M58 22C50 18 40 20 34 26C30 22 24 24 22 30C16 28 12 34 14 40C10 44 10 50 14 54C12 60 10 68 10 76C8 84 12 90 18 90C24 90 28 84 30 78L34 66C36 60 40 56 44 56C48 56 52 60 54 66C58 70 62 72 66 70C70 68 72 64 70 60C68 56 64 54 60 56C56 58 52 56 50 52C48 48 48 42 52 38C56 32 62 28 58 22Z"/>
  <path fill="#1a1a1a" d="M30 34H52C56 34 58 36 58 40V68C58 72 56 74 52 74H30C26 74 24 72 24 68V40C24 36 26 34 30 34ZM28 30C26 26 28 22 32 20H54C58 20 62 24 60 28L58 32H28V30Z"/>
</svg>
