<svg xmlns="http://www.w3.org/2000/svg" viewBox="0 0 100 100" role="img" aria-label="nyuko-neko carry head">
  <path fill="#1a1a1a" d="M50 8C40 8 32 14 30 24C24 22 18 28 20 34C16 38 16 44 20 48C18 56 18 66 22 74C26 80 34 82 40 78C36 74 32 66 32 56C32 46 36 38 42 32C38 26 38 18 42 12C46 6 54 4 62 6C70 8 76 16 76 24C76 30 72 34 68 38C72 44 76 52 78 62C80 72 78 80 72 84C80 82 86 74 88 64C90 54 86 44 80 36C84 28 82 18 74 12C68 8 58 6 50 8Z"/>
  <path fill="#1a1a1a" d="M34 2H66C70 2 72 4 72 8V22C72 26 70 28 66 28H34C30 28 28 26 28 22V8C28 4 30 2 34 2Z"/>
</svg>
