<svg xmlns="http://www.w3.org/2000/svg" viewBox="0 0 100 100" role="img" aria-label="nyuko-neko carry mouth">
  <path fill="#1a1a1a" d="M58 24C50 20 40 22 34 28C30 24 24 26 22 32C16 30 12 36 14 42C10 46 10 52 14 56C12 62 10 70 10 78C8 86 12 92 18 92C24 92 28 86 30 80L34 68C36 62 40 58 44 58C48 58 52 62 54 68C58 72 62 74 66 72C70 70 72 66 70 62C68 58 64 56 60 58C56 60 52 58 50 54C48 50 48 44 52 40C56 34 62 30 58 24Z"/>
  <path fill="#1a1a1a" d="M18 44H42C46 44 48 46 48 50V62C48 66 46 68 42 68H18C14 68 12 66 12 62V50C12 46 14 44 18 44Z"/>
</svg>
