<svg xmlns="http://www.w3.org/2000/svg" viewBox="0 0 100 100" role="img" aria-label="nyuko-neko carry stack">
  <path fill="#1a1a1a" d="M62 20C54 16 44 18 38 24C34 20 28 22 26 28C20 26 16 32 18 38C14 42 14 48 18 52C16 60 14 70 14 80C12 90 18 98 28 100C34 102 40 98 42 92C38 88 34 80 34 70C34 58 38 48 44 40C40 34 40 26 44 20C48 14 56 12 64 14C72 16 78 24 78 32C78 38 74 42 70 46C74 52 78 60 80 70C82 80 80 88 74 92C82 90 88 82 90 72C92 62 88 52 82 44C86 36 84 26 76 20C70 16 66 18 62 20Z"/>
  <path fill="#1a1a1a" d="M58 48H84C88 48 90 50 90 54V88C90 92 88 94 84 94H58C54 94 52 92 52 88V54C52 50 54 48 58 48ZM56 44C54 40 56 36 60 34H86C90 34 94 38 92 42L90 46H56V44Z"/>
</svg>
