<svg xmlns="http://www.w3.org/2000/svg" viewBox="0 0 100 100" role="img" aria-label="nyuko-neko back carry stand">
  <path fill="#1a1a1a" d="M58 24C50 20 40 22 34 28C30 24 24 26 22 32C16 30 12 36 14 42C10 46 10 52 14 56C12 62 10 70 10 78C8 86 12 92 18 92C24 92 28 86 30 80L34 68C36 62 40 58 44 58C48 58 52 62 54 68C58 72 62 74 66 72C70 70 72 66 70 62C68 58 64 56 60 58C56 60 52 58 50 54C48 50 48 44 52 40C56 34 62 30 58 24Z"/>
  <path fill="#1a1a1a" d="M44 8H72C76 8 78 10 78 14V52C78 56 76 58 72 58H44C40 58 38 56 38 52V14C38 10 40 8 44 8ZM42 4C40 0 42-4 46-4H70C74-4 78 0 76 4L74 8H42V4Z"/>
</svg>
