<svg xmlns="http://www.w3.org/2000/svg" viewBox="0 0 100 100" role="img" aria-label="nyuko-neko back carry walk a">
  <path fill="#1a1a1a" d="M58 22C50 18 40 20 34 26C30 22 24 24 22 30C16 28 12 34 14 40C10 44 10 50 14 54C12 58 10 64 10 72C8 80 10 86 16 88C22 90 28 86 30 80L34 68C36 62 40 58 44 56C48 54 52 56 54 60C58 64 62 66 66 64C70 62 72 58 70 54C68 50 64 48 60 50C56 52 52 50 50 46C48 42 48 36 52 32C56 26 62 22 58 22ZM18 84C14 82 12 78 14 74C16 70 20 70 22 74C24 78 22 84 18 84Z"/>
  <path fill="#1a1a1a" d="M40 6H68C72 6 74 8 74 12V48C74 52 72 54 68 54H40C36 54 34 52 34 48V12C34 8 36 6 40 6Z"/>
</svg>
