<svg xmlns="http://www.w3.org/2000/svg" viewBox="0 0 100 100" role="img" aria-label="nyuko-neko back carry walk b">
  <path fill="#1a1a1a" d="M42 22C50 18 60 20 66 26C70 22 76 24 78 30C84 28 88 34 86 40C90 44 90 50 86 54C88 58 90 64 90 72C92 80 90 86 84 88C78 90 72 86 70 80L66 68C64 62 60 58 56 56C52 54 48 56 46 60C42 64 38 66 34 64C30 62 28 58 30 54C32 50 36 48 40 50C44 52 48 50 50 46C52 42 52 36 48 32C44 26 38 22 42 22ZM82 84C86 82 88 78 86 74C84 70 80 70 78 74C76 78 78 84 82 84Z"/>
  <path fill="#1a1a1a" d="M26 6H54C58 6 60 8 60 12V48C60 52 58 54 54 54H26C22 54 20 52 20 48V12C20 8 22 6 26 6Z"/>
</svg>
