<svg xmlns="http://www.w3.org/2000/svg" viewBox="0 0 100 100" role="img" aria-label="nyuko-neko back carry rest">
  <path fill="#1a1a1a" d="M62 28C54 24 44 26 38 32C34 28 28 30 26 36C20 34 16 40 18 46C14 50 14 56 18 60C16 68 14 78 18 86C22 92 30 94 36 90C32 86 28 78 28 68C28 58 32 50 38 44C34 38 34 30 38 24C42 18 50 16 58 18C66 20 72 28 72 36C72 42 68 46 64 50C68 56 72 64 74 74C76 84 74 92 68 96C76 94 82 86 84 76C86 66 82 56 76 48C80 40 78 30 70 26C66 24 64 26 62 28Z"/>
  <path fill="#1a1a1a" d="M48 10H74C78 10 80 12 80 16V46C80 50 78 52 74 52H48C44 52 42 50 42 46V16C42 12 44 10 48 10Z"/>
</svg>
