<svg xmlns="http://www.w3.org/2000/svg" viewBox="0 0 100 110" role="img" aria-label="nyuko-neko">
  <title>nyuko-neko</title>
  <path fill="#1a1a1a" d="
    M 62 10
    C 54 6 44 8 38 14
    C 34 10 28 12 26 18
    C 20 16 16 22 18 28
    C 14 32 14 38 18 42
    C 16 50 12 60 10 72
    C 8 86 10 98 20 104
    C 26 108 34 108 40 104
    C 36 100 32 92 32 82
    C 32 70 36 58 42 50
    C 38 44 38 36 42 30
    C 46 22 54 18 62 20
    C 70 22 76 30 76 38
    C 76 44 72 48 68 52
    C 74 60 78 70 80 82
    C 82 94 80 102 72 106
    C 84 104 94 94 96 80
    C 98 66 94 52 86 44
    C 92 36 92 24 84 16
    C 78 10 70 8 62 10
    Z
  "/>
</svg>
