<?xml version="1.0" encoding="UTF-8"?>
<svg xmlns="http://www.w3.org/2000/svg" viewBox="0 0 960 620" role="img" aria-labelledby="title desc">
  <title id="title">ïŋ―O:ïŋ―ïŋ―ïŋ―ïŋ―nïŋ―Sïŋ―</title>
  <desc id="desc">ïŋ―zKïŋ― GitHub Pages Mïŋ―ïŋ―éĶķïŋ―:ïŋ―X ïŋ―ïŋ―ïŋ―~gnAïŋ―</desc>

  <defs>
    <marker id="arrow" markerWidth="8" markerHeight="8" refX="7" refY="4" orient="auto">
      <path d="M0,0 L8,4 L0,8 Z" fill="#111"/>
    </marker>
    <marker id="arrow-gray" markerWidth="8" markerHeight="8" refX="7" refY="4" orient="auto">
      <path d="M0,0 L8,4 L0,8 Z" fill="#666"/>
    </marker>
  </defs>

  <rect width="960" height="620" fill="#fafafa"/>

  <!-- section labels -->
  <text x="32" y="36" font-family="Helvetica, Arial, sans-serif" font-size="11" font-weight="700" fill="#666" letter-spacing="0.12em">DEVELOP / DEPLOY</text>
  <text x="32" y="300" font-family="Helvetica, Arial, sans-serif" font-size="11" font-weight="700" fill="#666" letter-spacing="0.12em">STATIC ASSETS</text>
  <text x="560" y="36" font-family="Helvetica, Arial, sans-serif" font-size="11" font-weight="700" fill="#666" letter-spacing="0.12em">USER FLOW</text>

  <!-- Developer -->
  <g transform="translate(40, 58)">
    <rect width="88" height="88" rx="4" fill="#fff" stroke="#111" stroke-width="2"/>
    <circle cx="44" cy="30" r="12" fill="none" stroke="#111" stroke-width="2"/>
    <path d="M20 78 C20 58 68 58 68 78" fill="none" stroke="#111" stroke-width="2"/>
    <rect x="54" y="62" width="24" height="16" rx="2" fill="none" stroke="#111" stroke-width="2"/>
    <text x="44" y="108" text-anchor="middle" font-family="Helvetica, Arial, sans-serif" font-size="12" font-weight="700" fill="#111">ïŋ―z</text>
  </g>

  <!-- arrow dev -> github -->
  <line x1="128" y1="102" x2="168" y2="102" stroke="#111" stroke-width="2" marker-end="url(#arrow)"/>
  <text x="148" y="94" text-anchor="middle" font-family="Helvetica, Arial, sans-serif" font-size="10" fill="#444">git push</text>

  <!-- GitHub -->
  <g transform="translate(170, 58)">
    <rect width="88" height="88" rx="4" fill="#fff" stroke="#111" stroke-width="2"/>
    <path fill="#24292f" transform="translate(22, 18) scale(0.055)" d="M512 0C229 0 0 229 0 512c0 226 146 418 350 486 26 5 35-11 35-25 0-12-.5-52-.8-95-142 31-172-68-172-68-23-59-57-75-57-75-47-32 3.5-32 3.5-32 52 3.7 79 53 79 53 46 79 121 56 150 43 5-33 18-56 33-69-114-13-234-57-234-253 0-56 20-102 53-138-5-13-23-65 5-136 0 0 43-14 141 53 41-11 85-17 129-17 44 0 88 6 129 17 98-67 141-53 141-53 28 71 10 123 5 136 33 36 53 82 53 138 0 196-120 240-234 253 18 16 34 47 34 95 0 69-.6 124-.6 141 0 14 9 30 36 25 204-68 350-260 350-486C1024 229 795 0 512 0z"/>
    <text x="44" y="108" text-anchor="middle" font-family="Helvetica, Arial, sans-serif" font-size="12" font-weight="700" fill="#111">GitHub</text>
  </g>

  <line x1="258" y1="102" x2="298" y2="102" stroke="#111" stroke-width="2" marker-end="url(#arrow)"/>
  <text x="278" y="94" text-anchor="middle" font-family="Helvetica, Arial, sans-serif" font-size="10" fill="#444">main ïŋ―ïŋ―</text>

  <!-- GitHub Actions -->
  <g transform="translate(300, 58)">
    <rect width="108" height="88" rx="4" fill="#fff" stroke="#111" stroke-width="2"/>
    <circle cx="54" cy="44" r="22" fill="none" stroke="#2088FF" stroke-width="3"/>
    <polygon points="48,34 48,54 64,44" fill="#2088FF"/>
    <text x="54" y="108" text-anchor="middle" font-family="Helvetica, Arial, sans-serif" font-size="11" font-weight="700" fill="#111">GitHub Actions</text>
  </g>

  <line x1="408" y1="102" x2="448" y2="102" stroke="#111" stroke-width="2" marker-end="url(#arrow)"/>
  <text x="428" y="94" text-anchor="middle" font-family="Helvetica, Arial, sans-serif" font-size="10" fill="#444">deploy</text>

  <!-- GitHub Pages -->
  <g transform="translate(450, 58)">
    <rect width="120" height="88" rx="4" fill="#fff" stroke="#111" stroke-width="2"/>
    <rect x="24" y="24" width="72" height="40" rx="3" fill="none" stroke="#111" stroke-width="2"/>
    <line x1="24" y1="34" x2="96" y2="34" stroke="#111" stroke-width="2"/>
    <circle cx="32" cy="29" r="2.5" fill="#111"/>
    <circle cx="40" cy="29" r="2.5" fill="#111"/>
    <circle cx="48" cy="29" r="2.5" fill="#111"/>
    <text x="60" y="108" text-anchor="middle" font-family="Helvetica, Arial, sans-serif" font-size="11" font-weight="700" fill="#111">GitHub Pages</text>
  </g>

  <text x="510" y="168" text-anchor="middle" font-family="Helvetica, Arial, sans-serif" font-size="11" fill="#444">tools.tadeku.net / {tool}/</text>

  <!-- deploy down arrow -->
  <path d="M510 146 L510 188" fill="none" stroke="#111" stroke-width="2" marker-end="url(#arrow)"/>

  <!-- Static assets box -->
  <g transform="translate(40, 210)">
    <rect width="420" height="150" rx="6" fill="#fff" stroke="#111" stroke-width="2"/>
    <text x="20" y="28" font-family="Helvetica, Arial, sans-serif" font-size="13" font-weight="700" fill="#111">Yïŋ―ÕĄïŋ―ïŋ―ïŋ―ïŋ―ïŋ―
ïŋ―	</text>

    <rect x="20" y="44" width="180" height="36" rx="3" fill="#f3f3f3" stroke="#999" stroke-width="1.5"/>
    <text x="30" y="67" font-family="Menlo, monospace" font-size="12" fill="#111">{tool}/index.html</text>

    <rect x="220" y="44" width="180" height="36" rx="3" fill="#f3f3f3" stroke="#999" stroke-width="1.5"/>
    <text x="230" y="67" font-family="Menlo, monospace" font-size="12" fill="#111">shared/site-link.js</text>

    <rect x="20" y="92" width="180" height="36" rx="3" fill="#f3f3f3" stroke="#999" stroke-width="1.5"/>
    <text x="30" y="115" font-family="Menlo, monospace" font-size="12" fill="#111">shared/*-quiz-data.js</text>

    <rect x="220" y="92" width="180" height="36" rx="3" fill="#f3f3f3" stroke="#999" stroke-width="1.5"/>
    <text x="230" y="115" font-family="Menlo, monospace" font-size="12" fill="#111">shared/*-quiz-engine.js</text>
  </g>

  <!-- arrow assets to browser -->
  <path d="M460 285 L540 285" fill="none" stroke="#111" stroke-width="2" marker-end="url(#arrow)"/>
  <text x="500" y="277" text-anchor="middle" font-family="Helvetica, Arial, sans-serif" font-size="10" fill="#444">GET</text>

  <!-- User -->
  <g transform="translate(560, 58)">
    <circle cx="36" cy="36" r="34" fill="#fff" stroke="#111" stroke-width="2"/>
    <circle cx="36" cy="28" r="10" fill="none" stroke="#111" stroke-width="2"/>
    <path d="M14 72 C14 52 58 52 58 72" fill="none" stroke="#111" stroke-width="2"/>
    <text x="36" y="108" text-anchor="middle" font-family="Helvetica, Arial, sans-serif" font-size="12" font-weight="700" fill="#111">ïŋ―ïŋ―ïŋ―ïŋ―</text>
  </g>

  <line x1="596" y1="146" x2="596" y2="188" stroke="#111" stroke-width="2" marker-end="url(#arrow)"/>
  <text x="610" y="172" font-family="Helvetica, Arial, sans-serif" font-size="10" fill="#444">ïŋ―ïŋ―</text>

  <!-- Browser -->
  <g transform="translate(520, 210)">
    <rect width="400" height="150" rx="6" fill="#fff" stroke="#111" stroke-width="2"/>
    <text x="20" y="28" font-family="Helvetica, Arial, sans-serif" font-size="13" font-weight="700" fill="#111">ïŋ―éĶķïŋ―éĪĒïŋ―ïŋ―n	</text>
    <text x="20" y="52" font-family="Helvetica, Arial, sans-serif" font-size="12" fill="#333">ïŋ―8On UIstart ïŋ― quiz ïŋ― result	</text>
    <text x="20" y="74" font-family="Helvetica, Arial, sans-serif" font-size="12" fill="#333">ïŋ―ïŋ―TMïŋ― engine k!Y</text>
    <text x="20" y="96" font-family="Helvetica, Arial, sans-serif" font-size="12" fill="#333">ïŋ―Pïŋ―ïŋ― DOM kïŋ―;</text>
    <text x="20" y="118" font-family="Helvetica, Arial, sans-serif" font-size="12" fill="#333">ïŋ―ïŋ―ïŋ―ïŋ―ïŋ―ïŋ―jW:ïŋ―ïŋ―ïŋ―ïŋ―hïŋ―	</text>
  </g>

  <!-- Diagnosis logic box -->
  <g transform="translate(40, 390)">
    <rect width="520" height="200" rx="6" fill="#fff" stroke="#111" stroke-width="2.5"/>
    <text x="20" y="28" font-family="Helvetica, Arial, sans-serif" font-size="13" font-weight="700" fill="#111">:ïŋ―ïŋ―ïŋ―ÃŊ*-quiz-engine.js	</text>

    <rect x="20" y="44" width="150" height="56" rx="4" fill="#f3f3f3" stroke="#999" stroke-width="1.5"/>
    <text x="95" y="66" text-anchor="middle" font-family="Helvetica, Arial, sans-serif" font-size="11" font-weight="700" fill="#111">1. ïŋ―Tïŋ―ïŋ―</text>
    <text x="95" y="84" text-anchor="middle" font-family="Helvetica, Arial, sans-serif" font-size="10" fill="#555">xïŋ―ïŋ―n dims ïŋ―ïŋ―ïŋ―</text>

    <line x1="170" y1="72" x2="198" y2="72" stroke="#666" stroke-width="1.5" marker-end="url(#arrow-gray)"/>

    <rect x="200" y="44" width="150" height="56" rx="4" fill="#f3f3f3" stroke="#999" stroke-width="1.5"/>
    <text x="275" y="66" text-anchor="middle" font-family="Helvetica, Arial, sans-serif" font-size="11" font-weight="700" fill="#111">2. ^<ïŋ―ïŋ―</text>
    <text x="275" y="84" text-anchor="middle" font-family="Helvetica, Arial, sans-serif" font-size="10" fill="#555">ïŋ―ïŋ―ïŋ―ïŋ―^<ïŋ―</text>

    <line x1="350" y1="72" x2="378" y2="72" stroke="#666" stroke-width="1.5" marker-end="url(#arrow-gray)"/>

    <rect x="380" y="44" width="120" height="56" rx="4" fill="#f3f3f3" stroke="#999" stroke-width="1.5"/>
    <text x="440" y="66" text-anchor="middle" font-family="Helvetica, Arial, sans-serif" font-size="11" font-weight="700" fill="#111">3. ïŋ―ïŋ―ïŋ―</text>
    <text x="440" y="84" text-anchor="middle" font-family="Helvetica, Arial, sans-serif" font-size="10" fill="#555">matchPct </text>

    <text x="20" y="130" font-family="Helvetica, Arial, sans-serif" font-size="11" fill="#444">ïŋ―ïŋ―ïŋ―ïŋ―ïŋ―*-quiz-data.js	</text>
    <text x="20" y="150" font-family="Helvetica, Arial, sans-serif" font-size="11" fill="#333">DIMENSIONS ïŋ― QUESTIONS ïŋ― :ïŋ―ïŋ―aA> / ïŋ―j / ïŋ―ïŋ―ïŋ―	h dims ŲŊïŋ―ïŋ―</text>

    <text x="20" y="178" font-family="Helvetica, Arial, sans-serif" font-size="11" fill="#444">ïŋ―aïŋ―ïŋ―ïŋ―</text>
    <text x="20" y="198" font-family="Helvetica, Arial, sans-serif" font-size="11" fill="#333">style-analysis ïŋ― bungo-analysis ïŋ― philosopher-analysis ïŋ― bungaku-ha</text>
  </g>

  <!-- arrow browser to logic -->
  <path d="M720 360 L720 390" fill="none" stroke="#111" stroke-width="2" marker-end="url(#arrow)"/>
  <text x="734" y="378" font-family="Helvetica, Arial, sans-serif" font-size="10" fill="#444">answers[]</text>

  <!-- Share flow -->
  <g transform="translate(600, 390)">
    <rect width="320" height="200" rx="6" fill="#fff" stroke="#111" stroke-width="2"/>
    <text x="20" y="28" font-family="Helvetica, Arial, sans-serif" font-size="13" font-weight="700" fill="#111">X ïŋ―ïŋ―ïŋ―</text>

    <rect x="20" y="44" width="280" height="40" rx="4" fill="#f3f3f3" stroke="#999" stroke-width="1.5"/>
    <text x="30" y="69" font-family="Helvetica, Arial, sans-serif" font-size="11" fill="#333">Pïŋ―Æ­ïŋ―ïŋ― + URL ïŋ―Dïŋ―f</text>

    <line x1="160" y1="84" x2="160" y2="104" stroke="#666" stroke-width="1.5" marker-end="url(#arrow-gray)"/>

    <rect x="20" y="106" width="280" height="40" rx="4" fill="#f3f3f3" stroke="#999" stroke-width="1.5"/>
    <text x="30" y="131" font-family="Menlo, monospace" font-size="10" fill="#333">twitter.com/intent/tweet</text>

    <line x1="160" y1="146" x2="160" y2="166" stroke="#666" stroke-width="1.5" marker-end="url(#arrow-gray)"/>

    <g transform="translate(130, 168)">
      <rect width="60" height="24" rx="4" fill="#111"/>
      <path fill="#fff" transform="translate(18, 5) scale(0.9)" d="M18.244 2.25h3.308l-7.227 8.26 8.502 11.24H16.17l-5.214-6.817L4.99 21.75H1.68l7.73-8.835L1.254 2.25H8.08l4.713 6.231zm-1.161 17.52h1.833L7.084 4.126H5.117z"/>
    </g>

    <text x="160" y="210" text-anchor="middle" font-family="Helvetica, Arial, sans-serif" font-size="10" fill="#666">;ïŋ―ïŋ―OG ïŋ―ïŋ―ïŋ―ïŋ―jW</text>
  </g>

  <!-- note -->
  <rect x="40" y="560" width="880" height="44" rx="4" fill="#fff" stroke="#ccc" stroke-width="1.5"/>
  <text x="56" y="587" font-family="Helvetica, Arial, sans-serif" font-size="11" fill="#555">	[fDjDïŋ―nBungokuromoji ïŋ―	ïŋ― Hyaku100O	ïŋ― ReadTypeÖŊïŋ―ïŋ― API	ïŋ― ïŋ―fōŊĪšcïŋ―ïŋ―ïŋ―	 %ïŋ―</text>
</svg>
